<?xml version="1.0" encoding="UTF-8"?>
<mxfile host="app.diagrams.net" modified="2025-09-13T00:00:00.000Z" agent="5.0 (Windows)" etag="E1" version="20.8.12" type="device">
  <diagram id="ENKA_diagram" name="Diagrama ENKA">
    <mxGraphModel dx="1420" dy="820" grid="1" gridSize="10" guides="1" tooltips="1" connect="1" arrows="1" fold="1" page="1" pageScale="1" pageWidth="850" pageHeight="1100" math="0" shadow="0">
      <root>
        <mxCell id="0"/>
        <mxCell id="1" parent="0"/>

        <!-- Layer -->
        <mxCell id="layer1" value="Layer 1" style="text;html=1;strokeColor=none;fillColor=none;" visible="1" parent="1"/>

        <!-- Swimlane: Gobernanza de Datos (top) -->
        <mxCell id="swim_gob" value="Área de Gobernanza de Datos" style="swimlane;html=1;rounded=0;strokeColor=#bdbdbd;fillColor=#e9e9e9;fontSize=14;align=center;verticalAlign=top;startSize=30;" vertex="1" parent="layer1">
          <mxGeometry x="20" y="20" width="980" height="180" as="geometry"/>
        </mxCell>

        <!-- Gobernanza: nodes -->
        <mxCell id="start" value="" style="ellipse;whiteSpace=wrap;html=1;aspect=fixed;fillColor=#000000;" vertex="1" parent="swim_gob">
          <mxGeometry x="20" y="40" width="18" height="18" as="geometry"/>
        </mxCell>

        <mxCell id="diagnostico" value="Diagnóstico de dispersión de datos globales" style="rounded=1;whiteSpace=wrap;html=1;strokeColor=#333333;fillColor=#ffffff;" vertex="1" parent="swim_gob">
          <mxGeometry x="60" y="40" width="300" height="40" as="geometry"/>
        </mxCell>

        <mxCell id="politicas" value="Definir políticas de gobernanza coherentes" style="rounded=1;whiteSpace=wrap;html=1;strokeColor=#333333;fillColor=#ffffff;" vertex="1" parent="swim_gob">
          <mxGeometry x="380" y="40" width="300" height="40" as="geometry"/>
        </mxCell>

        <mxCell id="jurisdicciones" value="Alinear políticas entre unidades y jurisdicciones" style="rounded=1;whiteSpace=wrap;html=1;strokeColor=#333333;fillColor=#ffffff;" vertex="1" parent="swim_gob">
          <mxGeometry x="700" y="40" width="250" height="40" as="geometry"/>
        </mxCell>

        <mxCell id="monitoreo" value="Monitorear riesgos de cumplimiento normativo" style="rounded=1;whiteSpace=wrap;html=1;strokeColor=#333333;fillColor=#ffffff;" vertex="1" parent="swim_gob">
          <mxGeometry x="60" y="100" width="390" height="40" as="geometry"/>
        </mxCell>

        <!-- Swimlane: Integración y Almacenamiento (middle) -->
        <mxCell id="swim_int" value="Área de Integración y Almacenamiento" style="swimlane;html=1;rounded=0;strokeColor=#bdbdbd;fillColor=#fff9db;fontSize=14;align=center;verticalAlign=top;startSize=30;" vertex="1" parent="layer1">
          <mxGeometry x="20" y="220" width="980" height="300" as="geometry"/>
        </mxCell>

        <!-- Integración nodes -->
        <mxCell id="inventario" value="Inventariar sistemas y plataformas de datos" style="rounded=1;whiteSpace=wrap;html=1;strokeColor=#333333;fillColor=#ffffff;" vertex="1" parent="swim_int">
          <mxGeometry x="40" y="260" width="300" height="40" as="geometry"/>
        </mxCell>

        <mxCell id="unificar" value="Unificar fuentes en infraestructura centralizada (nube/híbrida)" style="rounded=1;whiteSpace=wrap;html=1;strokeColor=#333333;fillColor=#ffffff;" vertex="1" parent="swim_int">
          <mxGeometry x="360" y="260" width="360" height="40" as="geometry"/>
        </mxCell>

        <mxCell id="transformacion" value="Estandarizar, transformar y limpiar datos (ETL/ELT)" style="rounded=1;whiteSpace=wrap;html=1;strokeColor=#333333;fillColor=#ffffff;" vertex="1" parent="swim_int">
          <mxGeometry x="40" y="320" width="320" height="40" as="geometry"/>
        </mxCell>

        <mxCell id="reportes" value="Facilitar análisis y generación de informes" style="rounded=1;whiteSpace=wrap;html=1;strokeColor=#333333;fillColor=#ffffff;" vertex="1" parent="swim_int">
          <mxGeometry x="380" y="320" width="300" height="40" as="geometry"/>
        </mxCell>

        <mxCell id="optimizar" value="Optimizar recursos de almacenamiento y procesamiento" style="rounded=1;whiteSpace=wrap;html=1;strokeColor=#333333;fillColor=#ffffff;" vertex="1" parent="swim_int">
          <mxGeometry x="40" y="380" width="360" height="40" as="geometry"/>
        </mxCell>

        <mxCell id="costos" value="Controlar visibilidad y reducir costos innecesarios" style="rounded=1;whiteSpace=wrap;html=1;strokeColor=#333333;fillColor=#ffffff;" vertex="1" parent="swim_int">
          <mxGeometry x="420" y="380" width="320" height="40" as="geometry"/>
        </mxCell>

        <!-- Swimlane: Seguridad y Cumplimiento (right-upper) -->
        <mxCell id="swim_seg" value="Área de Seguridad y Cumplimiento" style="swimlane;html=1;rounded=0;strokeColor=#bdbdbd;fillColor=#e8f6ff;fontSize=14;align=center;verticalAlign=top;startSize=30;" vertex="1" parent="layer1">
          <mxGeometry x="20" y="540" width="980" height="160" as="geometry"/>
        </mxCell>

        <mxCell id="controles" value="Aplicar controles de seguridad y acceso" style="rounded=1;whiteSpace=wrap;html=1;strokeColor=#333333;fillColor=#ffffff;" vertex="1" parent="swim_seg">
          <mxGeometry x="40" y="580" width="360" height="40" as="geometry"/>
        </mxCell>

        <mxCell id="auditoria" value="Ejecutar auditoría de seguridad y cumplimiento" style="rounded=1;whiteSpace=wrap;html=1;strokeColor=#333333;fillColor=#ffffff;" vertex="1" parent="swim_seg">
          <mxGeometry x="420" y="580" width="360" height="40" as="geometry"/>
        </mxCell>

        <mxCell id="decision_alert" value="¿Se detectan brechas/incumplimientos?" style="rhombus;whiteSpace=wrap;html=1;strokeColor=#333333;fillColor=#ffffff;" vertex="1" parent="swim_seg">
          <mxGeometry x="420" y="640" width="160" height="60" as="geometry"/>
        </mxCell>

        <!-- Swimlane: Analítica Avanzada (bottom) -->
        <mxCell id="swim_ana" value="Área de Analítica Avanzada" style="swimlane;html=1;rounded=0;strokeColor=#bdbdbd;fillColor=#e8fbe8;fontSize=14;align=center;verticalAlign=top;startSize=30;" vertex="1" parent="layer1">
          <mxGeometry x="20" y="720" width="980" height="240" as="geometry"/>
        </mxCell>

        <mxCell id="calidad" value="Validar disponibilidad y calidad de datos" style="rounded=1;whiteSpace=wrap;html=1;strokeColor=#333333;fillColor=#ffffff;" vertex="1" parent="swim_ana">
          <mxGeometry x="40" y="760" width="400" height="40" as="geometry"/>
        </mxCell>

        <mxCell id="ia" value="Implementar modelos de IA y Machine Learning" style="rounded=1;whiteSpace=wrap;html=1;strokeColor=#333333;fillColor=#ffffff;" vertex="1" parent="swim_ana">
          <mxGeometry x="460" y="760" width="460" height="40" as="geometry"/>
        </mxCell>

        <mxCell id="visualizacion" value="Visualizar datos en dashboards integrados" style="rounded=1;whiteSpace=wrap;html=1;strokeColor=#333333;fillColor=#ffffff;" vertex="1" parent="swim_ana">
          <mxGeometry x="40" y="820" width="420" height="40" as="geometry"/>
        </mxCell>

        <mxCell id="estrategia" value="Generar reportes estratégicos para innovación" style="rounded=1;whiteSpace=wrap;html=1;strokeColor=#333333;fillColor=#ffffff;" vertex="1" parent="swim_ana">
          <mxGeometry x="480" y="820" width="420" height="40" as="geometry"/>
        </mxCell>

        <mxCell id="decision_final" value="Soportar toma de decisiones globales" style="rounded=1;whiteSpace=wrap;html=1;strokeColor=#333333;fillColor=#ffffff;" vertex="1" parent="swim_ana">
          <mxGeometry x="260" y="880" width="460" height="40" as="geometry"/>
        </mxCell>

        <mxCell id="end" value="" style="ellipse;whiteSpace=wrap;html=1;aspect=fixed;fillColor=#000000;" vertex="1" parent="swim_ana">
          <mxGeometry x="380" y="930" width="18" height="18" as="geometry"/>
        </mxCell>

        <!-- Edges: conexiones principales -->
        <mxCell id="e1" style="edgeStyle=orthogonalEdgeStyle;rounded=0;orthogonalLoop=1;jettySize=auto;html=1;strokeColor=#1b1b1b;" edge="1" parent="layer1" source="start" target="diagnostico">
          <mxGeometry relative="1" as="geometry"/>
        </mxCell>

        <mxCell id="e2" style="edgeStyle=orthogonalEdgeStyle;rounded=0;html=1;strokeColor=#1b1b1b;" edge="1" parent="layer1" source="diagnostico" target="politicas">
          <mxGeometry relative="1" as="geometry"/>
        </mxCell>

        <mxCell id="e3" style="edgeStyle=orthogonalEdgeStyle;rounded=0;html=1;strokeColor=#1b1b1b;" edge="1" parent="layer1" source="politicas" target="jurisdicciones">
          <mxGeometry relative="1" as="geometry"/>
        </mxCell>

        <mxCell id="e4" style="edgeStyle=orthogonalEdgeStyle;rounded=0;html=1;strokeColor=#1b1b1b;" edge="1" parent="layer1" source="jurisdicciones" target="monitoreo">
          <mxGeometry relative="1" as="geometry"/>
        </mxCell>

        <mxCell id="e5" style="edgeStyle=orthogonalEdgeStyle;rounded=0;html=1;strokeColor=#1b1b1b;" edge="1" parent="layer1" source="monitoreo" target="inventario">
          <mxGeometry relative="1" as="geometry"/>
        </mxCell>

        <mxCell id="e6" style="edgeStyle=orthogonalEdgeStyle;rounded=0;html=1;strokeColor=#1b1b1b;" edge="1" parent="layer1" source="inventario" target="unificar">
          <mxGeometry relative="1" as="geometry"/>
        </mxCell>

        <mxCell id="e7" style="edgeStyle=orthogonalEdgeStyle;rounded=0;html=1;strokeColor=#1b1b1b;" edge="1" parent="layer1" source="unificar" target="transformacion">
          <mxGeometry relative="1" as="geometry"/>
        </mxCell>

        <mxCell id="e8" style="edgeStyle=orthogonalEdgeStyle;rounded=0;html=1;strokeColor=#1b1b1b;" edge="1" parent="layer1" source="transformacion" target="reportes">
          <mxGeometry relative="1" as="geometry"/>
        </mxCell>

        <mxCell id="e9" style="edgeStyle=orthogonalEdgeStyle;rounded=0;html=1;strokeColor=#1b1b1b;" edge="1" parent="layer1" source="reportes" target="optimizar">
          <mxGeometry relative="1" as="geometry"/>
        </mxCell>

        <mxCell id="e10" style="edgeStyle=orthogonalEdgeStyle;rounded=0;html=1;strokeColor=#1b1b1b;" edge="1" parent="layer1" source="optimizar" target="costos">
          <mxGeometry relative="1" as="geometry"/>
        </mxCell>

        <mxCell id="e11" style="edgeStyle=orthogonalEdgeStyle;rounded=0;html=1;strokeColor=#1b1b1b;" edge="1" parent="layer1" source="costos" target="controles">
          <mxGeometry relative="1" as="geometry"/>
        </mxCell>

        <mxCell id="e12" style="edgeStyle=orthogonalEdgeStyle;rounded=0;html=1;strokeColor=#1b1b1b;" edge="1" parent="layer1" source="controles" target="auditoria">
          <mxGeometry relative="1" as="geometry"/>
        </mxCell>

        <mxCell id="e13" style="edgeStyle=orthogonalEdgeStyle;rounded=0;html=1;strokeColor=#1b1b1b;" edge="1" parent="layer1" source="auditoria" target="decision_alert">
          <mxGeometry relative="1" as="geometry"/>
        </mxCell>

        <!-- Decisión: rutas Sí / No -->
        <mxCell id="e14" style="edgeStyle=orthogonalEdgeStyle;rounded=0;endArrow=block;html=1;strokeColor=#1b1b1b;" edge="1" parent="layer1" source="decision_alert" target="controles">
          <mxGeometry relative="1" as="geometry"/>
        </mxCell>
        <mxCell id="label14" value="Sí" style="text;html=1;fontSize=11;" vertex="1" parent="layer1">
          <mxGeometry x="610" y="700" width="30" height="20" as="geometry"/>
        </mxCell>

        <mxCell id="e15" style="edgeStyle=orthogonalEdgeStyle;rounded=0;endArrow=block;html=1;strokeColor=#1b1b1b;" edge="1" parent="layer1" source="decision_alert" target="calidad">
          <mxGeometry relative="1" as="geometry"/>
        </mxCell>
        <mxCell id="label15" value="No" style="text;html=1;fontSize=11;" vertex="1" parent="layer1">
          <mxGeometry x="490" y="700" width="30" height="20" as="geometry"/>
        </mxCell>

        <!-- Continuación hacia analítica -->
        <mxCell id="e16" style="edgeStyle=orthogonalEdgeStyle;rounded=0;html=1;strokeColor=#1b1b1b;" edge="1" parent="layer1" source="calidad" target="ia">
          <mxGeometry relative="1" as="geometry"/>
        </mxCell>

        <mxCell id="e17" style="edgeStyle=orthogonalEdgeStyle;rounded=0;html=1;strokeColor=#1b1b1b;" edge="1" parent="layer1" source="ia" target="visualizacion">
          <mxGeometry relative="1" as="geometry"/>
        </mxCell>

        <mxCell id="e18" style="edgeStyle=orthogonalEdgeStyle;rounded=0;html=1;strokeColor=#1b1b1b;" edge="1" parent="layer1" source="visualizacion" target="estrategia">
          <mxGeometr
